<?xml version="1.0" encoding="UTF-8"?>
<!DOCTYPE svg PUBLIC "-//W3C//DTD SVG 1.1//EN" "http://www.w3.org/Graphics/SVG/1.1/DTD/svg11.dtd">
<svg xmlns="http://www.w3.org/2000/svg" version="1.1" width="512px" height="512px" style="shape-rendering:geometricPrecision; text-rendering:geometricPrecision; image-rendering:optimizeQuality; fill-rule:evenodd; clip-rule:evenodd" xmlns:xlink="http://www.w3.org/1999/xlink">
<g><path style="opacity:0.934" fill="#000000" d="M 233.5,-0.5 C 248.167,-0.5 262.833,-0.5 277.5,-0.5C 367.555,10.0943 435.388,54.4276 481,132.5C 497.855,164.278 508.022,197.945 511.5,233.5C 511.5,248.167 511.5,262.833 511.5,277.5C 500.906,367.555 456.572,435.388 378.5,481C 346.722,497.855 313.055,508.022 277.5,511.5C 262.833,511.5 248.167,511.5 233.5,511.5C 143.445,500.906 75.612,456.572 30,378.5C 13.1449,346.722 2.97822,313.055 -0.5,277.5C -0.5,262.833 -0.5,248.167 -0.5,233.5C 10.0943,143.445 54.4276,75.612 132.5,30C 164.278,13.1449 197.945,2.97822 233.5,-0.5 Z M 238.5,16.5 C 333.927,14.1239 407.76,52.4573 460,131.5C 498.372,198.224 504.706,267.891 479,340.5C 447.513,417.32 391.68,466.487 311.5,488C 210.277,507.488 127.443,477.322 63,397.5C 14.2533,327.203 3.91994,251.536 32,170.5C 71.0476,79.2927 139.881,27.9593 238.5,16.5 Z M 117.5,218.5 C 127.059,234.608 136.392,250.941 145.5,267.5C 141.799,268.344 138.299,269.677 135,271.5C 132.385,275.021 132.051,278.688 134,282.5C 143.3,299.295 152.8,315.962 162.5,332.5C 156.361,335.819 149.861,338.152 143,339.5C 137.012,338.282 131.178,336.449 125.5,334C 118.176,332.05 110.842,332.05 103.5,334C 93.558,339.795 83.558,340.295 73.5,335.5C 72.4173,334.635 72.2506,333.635 73,332.5C 83.8904,314.718 93.7238,296.385 102.5,277.5C 101.143,270.533 96.81,267.366 89.5,268C 98.6611,251.355 107.994,234.855 117.5,218.5 Z M 254.5,218.5 C 256.433,219.642 257.933,221.308 259,223.5C 266.913,238.328 275.08,252.995 283.5,267.5C 280.559,268.522 277.559,269.355 274.5,270C 271.335,272.827 270.169,276.327 271,280.5C 281.601,299.401 291.768,318.068 301.5,336.5C 292.127,332.33 282.46,331.497 272.5,334C 266.999,336.421 261.333,338.254 255.5,339.5C 249.667,338.254 244.001,336.421 238.5,334C 234.721,333.094 230.888,332.594 227,332.5C 220.606,332.979 214.439,334.146 208.5,336C 219.38,317.744 229.88,299.244 240,280.5C 240.831,276.327 239.665,272.827 236.5,270C 233.441,269.355 230.441,268.522 227.5,267.5C 236.778,251.273 245.778,234.94 254.5,218.5 Z"/></g>
<g><path style="opacity:0.914" fill="#000000" d="M 184.5,46.5 C 188.839,45.8461 192.673,46.8461 196,49.5C 197.536,55.7494 197.87,62.0828 197,68.5C 192.114,76.0176 186.781,76.3509 181,69.5C 180.333,63.1667 180.333,56.8333 181,50.5C 182.376,49.2949 183.542,47.9616 184.5,46.5 Z"/></g>
<g><path style="opacity:0.894" fill="#000000" d="M 217.5,46.5 C 224.084,44.8683 228.25,47.2017 230,53.5C 231.196,60.0017 230.362,66.1683 227.5,72C 220.56,75.6869 215.726,73.8536 213,66.5C 211.939,60.2757 212.606,54.2757 215,48.5C 215.995,47.9341 216.828,47.2674 217.5,46.5 Z"/></g>
<g><path style="opacity:0.911" fill="#000000" d="M 250.5,46.5 C 255.223,45.5531 259.056,46.8864 262,50.5C 262.667,56.8333 262.667,63.1667 262,69.5C 256.219,76.3509 250.886,76.0176 246,68.5C 245.333,62.8333 245.333,57.1667 246,51.5C 247.025,49.313 248.525,47.6464 250.5,46.5 Z"/></g>
<g><path style="opacity:0.912" fill="#000000" d="M 282.5,46.5 C 285.187,46.3359 287.854,46.5026 290.5,47C 292.667,47.8333 294.167,49.3333 295,51.5C 295.667,57.1667 295.667,62.8333 295,68.5C 290.114,76.0176 284.781,76.3509 279,69.5C 278.333,63.1667 278.333,56.8333 279,50.5C 280.376,49.2949 281.542,47.9616 282.5,46.5 Z"/></g>
<g><path style="opacity:0.867" fill="#000000" d="M 155.5,56.5 C 164.526,58.3984 166.859,63.3984 162.5,71.5C 157.687,75.621 153.187,75.2876 149,70.5C 146.085,63.3339 148.252,58.6672 155.5,56.5 Z"/></g>
<g><path style="opacity:0.949" fill="#000000" d="M 106.5,89.5 C 168.168,89.3333 229.834,89.5 291.5,90C 306.704,94.5692 313.204,104.736 311,120.5C 308.202,129.965 302.035,136.132 292.5,139C 268.104,139.029 243.771,139.696 219.5,141C 211.5,147 211.5,153 219.5,159C 222.883,159.875 226.216,160.875 229.5,162C 233.5,166.667 233.5,171.333 229.5,176C 214.704,178.851 204.204,173.351 198,159.5C 193.888,141.552 200.388,129.386 217.5,123C 240.833,122.667 264.167,122.333 287.5,122C 295.317,118.738 296.317,114.071 290.5,108C 228.545,106.681 166.545,106.015 104.5,106C 100.212,102.229 99.3786,97.7288 102,92.5C 103.652,91.6006 105.152,90.6006 106.5,89.5 Z"/></g>
<g><path style="opacity:0.907" fill="#000000" d="M 334.5,116.5 C 342.851,117.668 346.185,122.501 344.5,131C 345.847,141.657 341.514,145.991 331.5,144C 327.967,140.501 326.634,136.168 327.5,131C 325.717,123.87 328.05,119.037 334.5,116.5 Z"/></g>
<g><path style="opacity:0.894" fill="#000000" d="M 367.5,116.5 C 375.346,117.981 378.679,122.814 377.5,131C 378.368,143.3 373.201,147.133 362,142.5C 358.667,134.833 358.667,127.167 362,119.5C 363.876,118.391 365.709,117.391 367.5,116.5 Z"/></g>
<g><path style="opacity:0.91" fill="#000000" d="M 399.5,116.5 C 408.04,117.563 411.373,122.396 409.5,131C 411.587,138.88 408.754,143.714 401,145.5C 393.811,143.184 390.978,138.184 392.5,130.5C 391.188,123.789 393.521,119.122 399.5,116.5 Z"/></g>
<g><path style="opacity:0.871" fill="#000000" d="M 432.5,127.5 C 441.224,128.618 444.058,133.285 441,141.5C 435.862,146.492 430.862,146.158 426,140.5C 424.097,133.952 426.263,129.619 432.5,127.5 Z"/></g>
<g><path style="opacity:0.955" fill="#000000" d="M 253.5,160.5 C 320.834,160.333 388.167,160.5 455.5,161C 462.995,165.838 463.328,171.172 456.5,177C 388.833,177.667 321.167,177.667 253.5,177C 248.391,173.634 247.224,169.134 250,163.5C 251.145,162.364 252.312,161.364 253.5,160.5 Z"/></g>
<g><path style="opacity:0.933" fill="#000000" d="M 435.5,355.5 C 427.035,357.156 418.702,356.656 410.5,354C 404.908,351.598 403.075,347.431 405,341.5C 406.721,338.719 409.221,337.052 412.5,336.5C 421.683,340.578 430.35,339.745 438.5,334C 428.683,316.177 418.85,298.343 409,280.5C 408.35,271.815 412.517,267.649 421.5,268C 412.367,251.372 403.033,234.872 393.5,218.5C 383.974,235.047 374.308,251.547 364.5,268C 371.859,267.494 376.525,270.66 378.5,277.5C 369.296,296.24 359.296,314.573 348.5,332.5C 358.605,339.076 369.271,340.41 380.5,336.5C 387.447,338.278 389.947,342.611 388,349.5C 384.457,353.574 379.957,355.741 374.5,356C 370.167,356.667 365.833,356.667 361.5,356C 354.339,353.661 347.172,351.494 340,349.5C 334.266,350.522 328.766,352.356 323.5,355C 315.833,357 308.167,357 300.5,355C 295.101,352.71 289.601,350.876 284,349.5C 276.761,351.245 269.594,353.411 262.5,356C 257.833,356.667 253.167,356.667 248.5,356C 241.406,353.411 234.239,351.245 227,349.5C 221.399,350.876 215.899,352.71 210.5,355C 202.833,357 195.167,357 187.5,355C 182.234,352.356 176.734,350.522 171,349.5C 165.266,350.522 159.766,352.356 154.5,355C 146.833,357 139.167,357 131.5,355C 125.999,352.579 120.333,350.746 114.5,349.5C 107.15,351.561 99.8162,353.727 92.5,356C 86.812,356.554 81.1454,356.387 75.5,355.5C 81.5864,367.994 89.4198,379.328 99,389.5C 102.912,400.892 99.0784,405.392 87.5,403C 70.9843,384.962 58.3176,364.462 49.5,341.5C 50.7699,336.956 52.6033,332.623 55,328.5C 62.9599,314.748 70.7932,300.914 78.5,287C 69.156,287.657 64.9893,283.491 66,274.5C 80.4131,248.005 95.0798,221.672 110,195.5C 114.643,190.547 119.643,190.213 125,194.5C 140.689,221.878 155.856,249.544 170.5,277.5C 168.803,284.715 164.137,287.882 156.5,287C 165.46,302.419 174.293,317.919 183,333.5C 184.441,334.87 186.108,335.87 188,336.5C 197.626,320.082 207.126,303.582 216.5,287C 206.392,287.738 202.225,283.238 204,273.5C 219.04,246.586 234.207,219.752 249.5,193C 253.781,190.891 257.948,191.058 262,193.5C 276.333,218.833 290.667,244.167 305,269.5C 310.591,280.82 307.091,286.653 294.5,287C 303.874,303.582 313.374,320.082 323,336.5C 324.892,335.87 326.559,334.87 328,333.5C 336.707,317.919 345.54,302.419 354.5,287C 346.863,287.882 342.197,284.715 340.5,277.5C 355.144,249.544 370.311,221.878 386,194.5C 389.338,191.682 393.171,190.849 397.5,192C 400.273,194.383 402.439,197.217 404,200.5C 417.667,225.167 431.333,249.833 445,274.5C 446.011,283.491 441.844,287.657 432.5,287C 440.207,300.914 448.04,314.748 456,328.5C 458.397,332.623 460.23,336.956 461.5,341.5C 436.468,400.364 394.134,441.531 334.5,465C 260.31,490.352 190.643,481.352 125.5,438C 119.39,433.524 113.557,428.691 108,423.5C 105.624,411.915 110.124,408.082 121.5,412C 178.953,458.759 243.62,472.426 315.5,453C 368.512,436.351 408.512,403.851 435.5,355.5 Z M 117.5,218.5 C 107.994,234.855 98.6611,251.355 89.5,268C 96.81,267.366 101.143,270.533 102.5,277.5C 93.7238,296.385 83.8904,314.718 73,332.5C 72.2506,333.635 72.4173,334.635 73.5,335.5C 83.558,340.295 93.558,339.795 103.5,334C 110.842,332.05 118.176,332.05 125.5,334C 131.178,336.449 137.012,338.282 143,339.5C 149.861,338.152 156.361,335.819 162.5,332.5C 152.8,315.962 143.3,299.295 134,282.5C 132.051,278.688 132.385,275.021 135,271.5C 138.299,269.677 141.799,268.344 145.5,267.5C 136.392,250.941 127.059,234.608 117.5,218.5 Z M 254.5,218.5 C 245.778,234.94 236.778,251.273 227.5,267.5C 230.441,268.522 233.441,269.355 236.5,270C 239.665,272.827 240.831,276.327 240,280.5C 229.88,299.244 219.38,317.744 208.5,336C 214.439,334.146 220.606,332.979 227,332.5C 230.888,332.594 234.721,333.094 238.5,334C 244.001,336.421 249.667,338.254 255.5,339.5C 261.333,338.254 266.999,336.421 272.5,334C 282.46,331.497 292.127,332.33 301.5,336.5C 291.768,318.068 281.601,299.401 271,280.5C 270.169,276.327 271.335,272.827 274.5,270C 277.559,269.355 280.559,268.522 283.5,267.5C 275.08,252.995 266.913,238.328 259,223.5C 257.933,221.308 256.433,219.642 254.5,218.5 Z"/></g>
</svg>
