<?xml version="1.0" encoding="UTF-8"?>
<!DOCTYPE svg PUBLIC "-//W3C//DTD SVG 1.1//EN" "http://www.w3.org/Graphics/SVG/1.1/DTD/svg11.dtd">
<svg xmlns="http://www.w3.org/2000/svg" version="1.1" width="512px" height="512px" style="shape-rendering:geometricPrecision; text-rendering:geometricPrecision; image-rendering:optimizeQuality; fill-rule:evenodd; clip-rule:evenodd" xmlns:xlink="http://www.w3.org/1999/xlink">
<g><path style="opacity:0.953" fill="#000000" d="M 250.5,-0.5 C 259.5,-0.5 268.5,-0.5 277.5,-0.5C 377.766,12.0408 449.266,64.0408 492,155.5C 502.296,180.684 508.796,206.684 511.5,233.5C 511.5,248.167 511.5,262.833 511.5,277.5C 498.959,377.766 446.959,449.266 355.5,492C 330.316,502.296 304.316,508.796 277.5,511.5C 262.833,511.5 248.167,511.5 233.5,511.5C 133.234,498.959 61.734,446.959 19,355.5C 8.70393,330.316 2.20393,304.316 -0.5,277.5C -0.5,262.833 -0.5,248.167 -0.5,233.5C 5.96128,168.746 32.6279,113.913 79.5,69C 88.157,64.7745 94.657,66.9412 99,75.5C 99.7011,78.9283 99.3677,82.2617 98,85.5C 30.7591,153.12 9.75908,233.12 35,325.5C 64.7057,408.873 122.539,461.04 208.5,482C 227.989,486.225 247.656,487.392 267.5,485.5C 278.691,456.095 272.024,431.595 247.5,412C 217.801,395.394 191.134,399.394 167.5,424C 157.03,427.27 150.697,423.603 148.5,413C 148.684,409.447 149.85,406.281 152,403.5C 180.277,376.309 212.777,369.809 249.5,384C 280.023,399.863 296.357,425.03 298.5,459.5C 297.859,467.582 297.025,475.582 296,483.5C 379.245,465.719 437.578,417.719 471,339.5C 501.115,252.43 487.115,173.43 429,102.5C 380.93,50.8919 321.43,24.3919 250.5,23C 239.982,15.1897 239.982,7.3564 250.5,-0.5 Z M 310.5,99.5 C 341.41,98.8624 363.243,112.529 376,140.5C 385.675,176.307 374.175,202.807 341.5,220C 308.489,230.886 282.323,222.053 263,193.5C 248.308,162.814 253.475,135.981 278.5,113C 288.18,105.989 298.846,101.489 310.5,99.5 Z M 116.5,238.5 C 131.998,238.174 141.498,245.507 145,260.5C 144.197,279.964 134.03,288.797 114.5,287C 103.169,283.025 96.8354,275.025 95.5,263C 97.3418,250.33 104.342,242.164 116.5,238.5 Z"/></g>
<g><path style="opacity:0.908" fill="#000000" d="M 197.5,62.5 C 210.213,64.5902 214.046,71.5902 209,83.5C 204.909,87.3049 200.076,88.4716 194.5,87C 185.864,81.4488 184.531,74.4488 190.5,66C 192.713,64.3838 195.047,63.2172 197.5,62.5 Z"/></g>
<g><path style="opacity:0.953" fill="#000000" d="M 307.5,74.5 C 342.08,72.212 369.58,84.8787 390,112.5C 411.194,148.362 409.861,183.362 386,217.5C 359.027,247.453 326.193,256.62 287.5,245C 246.9,227.656 227.733,196.823 230,152.5C 234.897,118.943 252.73,95.1093 283.5,81C 291.463,78.1785 299.463,76.0118 307.5,74.5 Z M 310.5,99.5 C 298.846,101.489 288.18,105.989 278.5,113C 253.475,135.981 248.308,162.814 263,193.5C 282.323,222.053 308.489,230.886 341.5,220C 374.175,202.807 385.675,176.307 376,140.5C 363.243,112.529 341.41,98.8624 310.5,99.5 Z"/></g>
<g><path style="opacity:0.906" fill="#000000" d="M 155.5,149.5 C 167.867,150.233 172.367,156.567 169,168.5C 163.569,175.035 157.069,176.201 149.5,172C 142.755,162.057 144.755,154.557 155.5,149.5 Z"/></g>
<g><path style="opacity:0.952" fill="#000000" d="M 112.5,213.5 C 134.811,211.574 151.978,219.907 164,238.5C 175.622,264.064 170.789,285.897 149.5,304C 127.06,317.249 105.727,315.582 85.5,299C 66.9867,277.376 65.8201,254.876 82,231.5C 90.1909,221.994 100.358,215.994 112.5,213.5 Z M 116.5,238.5 C 104.342,242.164 97.3418,250.33 95.5,263C 96.8354,275.025 103.169,283.025 114.5,287C 134.03,288.797 144.197,279.964 145,260.5C 141.498,245.507 131.998,238.174 116.5,238.5 Z"/></g>
<g><path style="opacity:0.948" fill="#000000" d="M 386.5,266.5 C 400.575,265.068 406.408,271.068 404,284.5C 402.954,286.09 401.787,287.59 400.5,289C 394.065,290.683 387.732,292.683 381.5,295C 370.71,304.692 369.71,315.359 378.5,327C 391.594,335.845 402.427,333.679 411,320.5C 412.214,315.886 413.214,311.22 414,306.5C 419.668,298.805 426.502,297.638 434.5,303C 436.755,305.744 438.088,308.911 438.5,312.5C 433.345,345.815 414.011,360.315 380.5,356C 359.456,348.944 348.123,334.277 346.5,312C 349.125,287.219 362.458,272.053 386.5,266.5 Z"/></g>
<g><path style="opacity:0.908" fill="#000000" d="M 241.5,287.5 C 254.058,290.658 257.225,297.991 251,309.5C 244.548,314.494 238.214,314.161 232,308.5C 227.218,297.627 230.385,290.627 241.5,287.5 Z"/></g>
<g><path style="opacity:0.908" fill="#000000" d="M 93.5,362.5 C 102.5,362.149 107.834,366.316 109.5,375C 106.567,386.544 99.5668,389.878 88.5,385C 83.1014,379.078 82.6014,372.911 87,366.5C 89.0129,364.752 91.1795,363.418 93.5,362.5 Z"/></g>
<g><path style="opacity:0.912" fill="#000000" d="M 329.5,376.5 C 342.037,377.196 346.537,383.529 343,395.5C 336.342,403.023 329.342,403.356 322,396.5C 317.72,387.164 320.22,380.498 329.5,376.5 Z"/></g>
</svg>
