<svg xmlns="http://www.w3.org/2000/svg" width="512" height="512" viewBox="0 0 512 512" version="1.1"><path d="" stroke="none" fill="#080404" fill-rule="evenodd"/><path d="M 247.674 3.392 C 244.435 6.632, 244 7.651, 244 12 C 244 16.272, 244.453 17.387, 247.384 20.317 C 251.169 24.102, 254.549 24.972, 265.538 24.989 C 279.596 25.011, 302.859 28.706, 319.738 33.597 C 381.336 51.447, 433.358 94.502, 462.194 151.500 C 479.494 185.694, 487.026 217.741, 486.979 256.962 C 486.934 295.470, 478.133 330.659, 460.086 364.500 C 431.292 418.491, 381.192 459.724, 323 477.326 C 313.374 480.237, 296.709 484.003, 296.089 483.407 C 295.864 483.190, 296.277 480.422, 297.007 477.256 C 299.052 468.389, 298.601 450.063, 296.102 440.500 C 291.727 423.756, 280.700 406.504, 267.828 396.261 C 239.966 374.091, 203.027 371.138, 172.802 388.665 C 163.899 393.828, 151.834 404.572, 150.019 408.953 C 147.466 415.118, 151.094 422.886, 157.519 425.006 C 162.864 426.770, 166.182 425.450, 174.164 418.384 C 194.008 400.815, 218.329 397.407, 241.500 408.949 C 268.029 422.163, 280.351 453.605, 269.923 481.477 L 267.856 487 253.640 487 C 168.493 487, 88.777 437.528, 49.806 360.500 C 36.573 334.345, 29.110 309.217, 25.958 280.207 C 24.405 265.909, 25.231 232.074, 27.452 219 C 35.515 171.549, 55.483 131.664, 89.382 95.301 C 96.379 87.796, 99.064 84.175, 99.548 81.594 C 100.998 73.864, 93.183 65.993, 85.491 67.436 C 77.551 68.925, 51.526 98.435, 37.169 122.229 C 16.985 155.680, 4.760 192.173, 0.933 230.395 C -0.927 248.972, 0.198 281.131, 3.334 299 C 12.626 351.959, 37.163 399.251, 74.956 437.044 C 112.696 474.784, 159.339 499.014, 213 508.754 C 226.453 511.196, 229.559 511.386, 256 511.386 C 282.441 511.386, 285.547 511.196, 299 508.754 C 352.661 499.014, 399.304 474.784, 437.044 437.044 C 468.179 405.909, 490.282 368.421, 502.517 326 C 506.230 313.127, 511 287.810, 511 280.980 C 511 278.856, 511.450 276.840, 512 276.500 C 512.615 276.120, 513 267.803, 513 254.882 C 513 241.137, 512.655 234.095, 512 234.500 C 511.397 234.872, 511 233.537, 511 231.138 C 511 224.205, 506.257 198.969, 502.517 186 C 493.077 153.268, 476.799 121.848, 455.372 95 C 446.671 84.098, 427.902 65.329, 417 56.628 C 373.719 22.087, 320.816 2.091, 267.924 0.284 L 251.349 -0.282 247.674 3.392 M 196.624 64.125 C 186.894 66.728, 184.377 79.372, 192.376 85.473 C 198.422 90.085, 207.309 88.082, 210.484 81.393 C 212.415 77.323, 212.398 74.641, 210.414 70.460 C 207.854 65.064, 202.429 62.573, 196.624 64.125 M 302 76.424 C 283.514 80.327, 268.841 88.169, 256.005 101.005 C 221.298 135.712, 221.579 191.162, 256.634 225.195 C 267.463 235.709, 276.964 241.524, 291 246.229 C 300.124 249.287, 301.153 249.415, 317 249.446 C 336.102 249.484, 341.225 248.431, 355.500 241.529 C 374.926 232.138, 388.417 218.379, 397.503 198.692 C 403.456 185.793, 404.483 180.368, 404.446 162 C 404.415 146.153, 404.287 145.124, 401.229 136 C 396.524 121.964, 390.709 112.463, 380.195 101.634 C 369.447 90.563, 356.712 82.966, 341.297 78.429 C 330.394 75.221, 312.116 74.288, 302 76.424 M 304.131 101.474 C 274.467 108.222, 253.421 136.061, 255.349 166 C 256.425 182.712, 261.862 194.850, 273.548 206.628 C 286.347 219.526, 299.843 225.107, 318.199 225.089 C 342.065 225.067, 362.741 212.297, 373.536 190.913 C 378.095 181.881, 380.079 173.489, 380.089 163.199 C 380.100 151.705, 378.655 145.248, 373.788 135.056 C 370.545 128.267, 368.163 125.032, 361.628 118.548 C 353.176 110.162, 346.180 105.958, 335 102.546 C 327.320 100.203, 312.051 99.672, 304.131 101.474 M 155.500 150.723 C 146.344 153.059, 143.133 164.921, 149.901 171.405 C 155.323 176.600, 164.570 175.638, 168.619 169.458 C 171.926 164.412, 170.360 155.776, 165.570 152.638 C 162.996 150.952, 158.188 150.038, 155.500 150.723 M 109.275 215.539 C 87.071 221.519, 71.983 240.606, 71.757 263 C 71.614 277.089, 76.306 288.491, 86.399 298.584 C 96.361 308.547, 107.085 313, 121.111 313 C 147.215 313, 168.234 293.494, 170.611 267.063 C 171.816 253.659, 166.130 239.056, 155.666 228.684 C 143.217 216.343, 125.221 211.244, 109.275 215.539 M 0.425 256 C 0.425 267.825, 0.569 272.663, 0.746 266.750 C 0.923 260.837, 0.923 251.162, 0.746 245.250 C 0.569 239.338, 0.425 244.175, 0.425 256 M 112.704 240.534 C 93.631 247.534, 90.960 273.743, 108.211 284.633 C 113.789 288.155, 123.968 289.048, 130.424 286.582 C 136.428 284.289, 142.467 277.535, 144.433 270.913 C 146.378 264.364, 146.384 262.655, 144.483 256.256 C 140.661 243.384, 125.447 235.858, 112.704 240.534 M 384.715 267.990 C 382.083 268.460, 377.133 270.173, 373.715 271.798 C 349.009 283.539, 340.314 314.114, 355.119 337.185 C 364.319 351.523, 383.029 359.948, 399.578 357.206 C 421.172 353.627, 438 335.032, 438 314.748 C 438 304.931, 433.901 300.407, 425.180 300.600 C 418.901 300.739, 414.540 305.408, 413.494 313.112 C 413.092 316.076, 411.936 320.131, 410.925 322.124 C 401.528 340.661, 373.078 333.743, 373.016 312.907 C 372.984 301.791, 380.038 293.915, 391.648 292.103 C 395.030 291.576, 398.690 290.586, 399.782 289.904 C 406.551 285.677, 406.598 273.353, 399.862 269.146 C 397.216 267.493, 390.407 266.974, 384.715 267.990 M 235.756 290.755 C 232.762 292.611, 230 297.527, 230 301 C 230 304.563, 232.816 309.460, 235.920 311.294 C 239.610 313.473, 245.384 313.477, 249.066 311.302 C 254.290 308.216, 256.277 298.672, 252.679 293.954 C 248.894 288.991, 241.006 287.500, 235.756 290.755 M 93.500 363.819 C 82.961 367.408, 81.861 381.859, 91.770 386.561 C 99.837 390.389, 109 384.603, 109 375.682 C 109 371.516, 106.846 367.009, 104.007 365.236 C 101.625 363.749, 95.953 362.984, 93.500 363.819 M 329.258 377.696 C 326.054 378.326, 321.380 383.352, 320.662 386.938 C 318.565 397.424, 330.314 405.693, 338.964 399.820 C 340.984 398.449, 343.040 395.863, 343.894 393.619 C 347.317 384.625, 339.158 375.748, 329.258 377.696" stroke="none" fill="#040404" fill-rule="evenodd"/></svg>