<svg width="123" height="122" xmlns="http://www.w3.org/2000/svg" xmlns:xlink="http://www.w3.org/1999/xlink" overflow="hidden"><defs><clipPath id="clip0"><rect x="393" y="271" width="123" height="122"/></clipPath></defs><g clip-path="url(#clip0)" transform="translate(-393 -271)"><path d="M398 332C398 300.52 423.296 275 454.5 275 485.704 275 511 300.52 511 332 511 363.48 485.704 389 454.5 389 423.296 389 398 363.48 398 332Z" stroke="#FFFFFF" stroke-width="8" stroke-linejoin="round" stroke-miterlimit="10" fill="none" fill-rule="evenodd"/><path d="M0 0C16.35 0 32.6999 7.05002 32.6999 14.1 32.6999 21.15 49.0499 28.2 65.3999 28.2" stroke="#FFFFFF" stroke-width="8" stroke-linecap="round" stroke-miterlimit="8" fill="none" fill-rule="evenodd" transform="matrix(-1 1.22465e-16 1.22465e-16 1 479.4 297)"/><path d="M0 0C9.21606 0 18.4321 3.8 18.4321 7.6 18.4321 11.4 27.6482 15.2 36.8643 15.2" stroke="#FFFFFF" stroke-width="8" stroke-linecap="round" stroke-miterlimit="8" fill="none" fill-rule="evenodd" transform="matrix(-1 1.22465e-16 1.22465e-16 1 489.864 310)"/><path d="M408 362 501.586 362" stroke="#FFFFFF" stroke-width="8" stroke-miterlimit="8" fill="none" fill-rule="evenodd"/><path d="M433.5 310.5C427.977 310.5 423.5 306.023 423.5 300.5 423.5 294.977 427.977 290.5 433.5 290.5 427.977 294.642 426.858 302.477 431 308 431.711 308.948 432.552 309.789 433.5 310.5Z" stroke="#FFFFFF" stroke-width="1.33333" stroke-miterlimit="8" fill="#FFFFFF" fill-rule="evenodd"/><path d="M471.5 340.5 478.5 329.5 485.5 340.5Z" stroke="#FFFFFF" stroke-width="1.33333" stroke-miterlimit="8" fill="#FFFFFF" fill-rule="evenodd"/><path d="M468.5 354.5 479 340.5 489.5 354.5Z" stroke="#FFFFFF" stroke-width="1.33333" stroke-miterlimit="8" fill="#FFFFFF" fill-rule="evenodd"/><path d="M478 354 478.007 360.805" stroke="#FFFFFF" stroke-width="6" stroke-miterlimit="8" fill="none" fill-rule="evenodd"/><path d="M456.5 352.5 461 345.5 465.5 352.5Z" stroke="#FFFFFF" stroke-width="1.33333" stroke-miterlimit="8" fill="#FFFFFF" fill-rule="evenodd"/><path d="M454.5 358.5 461 350.5 467.5 358.5Z" stroke="#FFFFFF" stroke-width="1.33333" stroke-miterlimit="8" fill="#FFFFFF" fill-rule="evenodd"/><path d="M460 358 460 362" stroke="#FFFFFF" stroke-width="6" stroke-miterlimit="8" fill="none" fill-rule="evenodd"/><path d="M489.5 352.5 494 345.5 498.5 352.5Z" stroke="#FFFFFF" stroke-width="1.33333" stroke-miterlimit="8" fill="#FFFFFF" fill-rule="evenodd"/><path d="M487.5 358.5 494 350.5 500.5 358.5Z" stroke="#FFFFFF" stroke-width="1.33333" stroke-miterlimit="8" fill="#FFFFFF" fill-rule="evenodd"/><path d="M493 358 493 362" stroke="#FFFFFF" stroke-width="6" stroke-miterlimit="8" fill="none" fill-rule="evenodd"/><path d="M469.5 348.5 478.5 336.5 487.5 348.5Z" stroke="#FFFFFF" stroke-width="1.33333" stroke-miterlimit="8" fill="#FFFFFF" fill-rule="evenodd"/></g></svg>